Coordinates
version=1
nRows=7
nColumns=63
inDegrees=yes

Units are S.I. units (second, meters, Newtons, ...)
If the header above contains a line with 'inDegrees', this indicates whether rotational values are in degrees (yes) or radians (no).

endheader
time	pelvis_tilt	pelvis_list	pelvis_rotation	pelvis_tx	pelvis_ty	pelvis_tz	hip_flexion_r	hip_adduction_r	hip_rotation_r	knee_angle_r	knee_angle_r_beta	ankle_angle_r	subtalar_angle_r	mtp_angle_r	hip_flexion_l	hip_adduction_l	hip_rotation_l	knee_angle_l	knee_angle_l_beta	ankle_angle_l	subtalar_angle_l	mtp_angle_l	L5_S1_Flex_Ext	L5_S1_Lat_Bending	L5_S1_axial_rotation	L4_L5_Flex_Ext	L4_L5_Lat_Bending	L4_L5_axial_rotation	L3_L4_Flex_Ext	L3_L4_Lat_Bending	L3_L4_axial_rotation	L2_L3_Flex_Ext	L2_L3_Lat_Bending	L2_L3_axial_rotation	L1_L2_Flex_Ext	L1_L2_Lat_Bending	L1_L2_axial_rotation	L1_T12_Flex_Ext	L1_T12_Lat_Bending	L1_T12_axial_rotation	Abs_r3	Abs_r2	Abs_r1	Abs_t1	Abs_t2	neck_flexion	neck_bending	neck_rotation	arm_flex_r	arm_add_r	arm_rot_r	elbow_flex_r	pro_sup_r	wrist_flex_r	wrist_dev_r	arm_flex_l	arm_add_l	arm_rot_l	elbow_flex_l	pro_sup_l	wrist_flex_l	wrist_dev_l
      7.65000000	     -2.50001792	      8.50415102	     89.45107662	      0.27855882	      0.92812098	      0.62003403	     -9.82833909	     -2.21105444	     -7.64597959	      9.99622623	      0.17446706	     42.37959364	      8.50398867	      0.00000000	    -11.07065614	      2.18174574	     16.82932852	      4.61086142	      0.08047471	     33.65793713	    -16.01069396	      0.00000000	     -0.14206126	     -1.17192534	      1.85157001	     -0.26382197	     -1.55866071	      1.96729314	     -0.23339244	     -2.84941928	      1.96729314	     -0.16236181	     -2.84941928	      1.62012376	     -0.13191809	     -2.38979016	      1.50440063	     -0.08117380	     -1.81531236	      1.38867751	     -1.01472938	    -13.25705386	     10.29787693	      0.00000000	      0.00000000	     24.50760928	      9.19620411	    -35.25756057	    -61.75818775	   -139.77205819	   -122.31322500	     56.05611521	     87.86069586	    -21.93978145	    -21.42636672	    119.31289669	     18.46080856	    169.21942194	      0.23069221	      1.58248325	    -67.78476145	    -23.58689570
      7.66666667	     -2.30018412	      8.93699173	     89.01911922	      0.27903654	      0.92868931	      0.62219675	     -9.94081474	     -2.17780200	     -7.99458179	     10.17831384	      0.17764509	     42.67195591	      9.52646802	      0.00000000	    -11.37405864	      2.06900368	     16.30736575	      4.74265460	      0.08277494	     33.66280086	    -15.93624197	      0.00000000	     -0.27425835	     -1.12768368	      1.77120155	     -0.50932518	     -1.49981929	      1.88190165	     -0.45057904	     -2.74185010	      1.88190165	     -0.31344986	     -2.74185010	      1.54980136	     -0.25467630	     -2.29957256	      1.43910126	     -0.15671122	     -1.74678202	      1.32840117	     -1.95899995	    -12.75658332	      9.85089169	      0.00000000	      0.00000000	     23.81608656	      9.60846980	    -32.87224224	    -58.25609478	   -140.96037993	   -117.68066167	     51.25381768	     87.93505577	    -27.47765209	    -21.31640984	    119.87454856	     16.45920539	    165.03336215	      0.24596026	      1.55160549	    -68.37645815	    -23.46083882
      7.68333333	     -2.04108111	      9.31871865	     88.54479126	      0.27946208	      0.92908940	      0.62363126	    -10.07399269	     -2.09256843	     -8.25717876	     10.29483237	      0.17967872	     43.04060174	     10.48589858	      0.00000000	    -11.75943065	      1.89987219	     15.92994377	      4.67060605	      0.08151745	     33.62845147	    -16.03661203	      0.00000000	     -0.36483540	     -1.08326737	      1.69499174	     -0.67753582	     -1.44074560	      1.80092873	     -0.59938808	     -2.63385627	      1.80092873	     -0.41697038	     -2.63385627	      1.48311778	     -0.33878615	     -2.20899881	      1.37718079	     -0.20846695	     -1.67798115	      1.27124381	     -2.60598278	    -12.25413710	      9.42703558	      0.00000000	      0.00000000	     22.93767521	      9.67631040	    -31.35659844	    -55.09573487	   -141.87672879	   -112.09495246	     47.39384245	     88.04099803	    -35.15446985	    -20.65094784	    120.20587472	     14.63608835	    162.36899462	      0.25270244	      1.53778534	    -68.65074833	    -23.40185977
      7.70000000	     -1.82348019	      9.51619616	     88.09917858	      0.27985516	      0.92927142	      0.62406304	    -10.13179516	     -2.01042195	     -8.21078245	     10.36291621	      0.18086701	     43.29500438	     11.00350044	      0.00000000	    -12.06612931	      1.75331487	     15.60912602	      4.46442434	      0.07791890	     33.53484689	    -16.11907643	      0.00000000	     -0.39269551	     -1.04715354	      1.61966832	     -0.72927482	     -1.39271421	      1.72089759	     -0.64515945	     -2.54604912	      1.72089759	     -0.44881169	     -2.54604912	      1.41720978	     -0.36465705	     -2.13535550	      1.31598051	     -0.22438621	     -1.62204083	      1.21475124	     -2.80498472	    -11.84561028	      9.00810928	      0.00000000	      0.00000000	     22.17597308	      9.24900214	    -30.71131769	    -52.51709512	   -142.98405078	   -105.90742033	     43.71944774	     88.14793644	    -43.96370782	    -19.73041738	    120.16460550	     12.95456360	    161.29105200	      0.25873734	      1.55354131	    -68.63793571	    -23.40377024
      7.71666667	     -1.71509082	      9.43953286	     87.74337975	      0.28032133	      0.92923585	      0.62354291	    -10.01744445	     -1.97308080	     -7.84314721	     10.41843802	      0.18183605	     43.37723517	     11.02990299	      0.00000000	    -12.16144843	      1.68260413	     15.38558972	      4.20089145	      0.07331939	     33.35066401	    -16.20167317	      0.00000000	     -0.35868897	     -1.02613083	      1.54415050	     -0.66612128	     -1.36475401	      1.64065991	     -0.58929010	     -2.49493451	      1.64065991	     -0.40994562	     -2.49493451	      1.35113169	     -0.33307858	     -2.09248600	      1.25462228	     -0.20495488	     -1.58947666	      1.15811288	     -2.56207943	    -11.60779722	      8.58810185	      0.00000000	      0.00000000	     21.89478309	      8.42668469	    -30.78167980	    -50.77438582	   -144.41679809	   -100.03108390	     39.83078821	     88.22122240	    -52.52854453	    -18.91728384	    119.77191652	     11.40938806	    161.34479377	      0.27119287	      1.58132656	    -68.24192753	    -23.44222440
      7.73333333	     -1.67028718	      9.10503741	     87.50510195	      0.28078462	      0.92894745	      0.62240635	     -9.75586293	     -1.92416940	     -7.15324466	     10.40547860	      0.18160986	     43.23070969	     10.55431105	      0.00000000	    -11.99299370	      1.63299862	     15.21988056	      3.96549027	      0.06921086	     33.17820672	    -16.18879028	      0.00000000	     -0.28506989	     -1.01658516	      1.50524350	     -0.52940328	     -1.35205827	      1.59932122	     -0.46834131	     -2.47172516	      1.59932122	     -0.32580637	     -2.47172516	      1.31708806	     -0.26471590	     -2.07302046	      1.22301034	     -0.16288893	     -1.57469042	      1.12893263	     -2.03622568	    -11.49981467	      8.37171278	      0.00000000	      0.00000000	     22.19640570	      7.56907131	    -31.44389797	    -50.01344352	   -145.48599457	    -96.06703436	     36.59973901	     88.07677029	    -58.97346484	    -18.43928910	    119.19273284	     10.21772917	    161.61638677	      0.28650410	      1.61273316	    -67.04403951	    -23.58869942
      7.75000000	     -1.75511544	      8.71701245	     87.38752363	      0.28140028	      0.92863316	      0.62124411	     -9.43307843	     -1.97606962	     -6.66177333	     10.47325766	      0.18279283	     43.01390999	     10.14471799	      0.00000000	    -11.73158329	      1.68168921	     15.15236901	      3.79296431	      0.06619972	     32.97709394	    -16.14672327	      0.00000000	     -0.21663836	     -1.03500089	      1.54475677	     -0.40231911	     -1.37655119	      1.64130407	     -0.35591517	     -2.51650117	      1.64130407	     -0.24759599	     -2.51650117	      1.35166218	     -0.20117039	     -2.11057382	      1.25511488	     -0.12378716	     -1.60321638	      1.15856758	     -1.54742617	    -11.70813710	      8.59147374	      0.00000000	      0.00000000	     22.73509657	      6.73687169	    -32.94042003	    -50.28585149	   -145.07538086	    -96.07768829	     35.77652139	     88.15667926	    -61.81024585	    -18.30297398	    118.62938344	      9.67286042	    161.74795283	      0.29195697	      1.57215421	    -64.87918455	    -23.81151761
